<?xml version="1.0" encoding="UTF-8"?>
<svg id="logo" data-name="Layer 1" xmlns="http://www.w3.org/2000/svg" viewBox="0 0 78.39 21.55">
  <defs>
    <style>
      .cls-1 {
        fill: #000;
        stroke-width: 0px;
      }
    </style>
  </defs>
  <g>
    <path class="cls-1" d="M10.55,12.24c-.09-1.69-.2-3.73-.18-5.24h-.05c-.41,1.42-.92,2.94-1.53,4.61l-2.14,5.89h-1.19l-1.96-5.78c-.58-1.71-1.06-3.28-1.4-4.72h-.04c-.04,1.51-.13,3.55-.23,5.37l-.32,5.2H0L.85,5.44h2l2.07,5.87c.5,1.49.92,2.83,1.22,4.09h.05c.31-1.22.74-2.56,1.28-4.09l2.16-5.87h2l.76,12.14h-1.53l-.31-5.33Z"/>
    <path class="cls-1" d="M19.67,17.57l-.13-1.1h-.05c-.49.68-1.42,1.3-2.67,1.3-1.76,0-2.66-1.24-2.66-2.5,0-2.11,1.87-3.26,5.24-3.24v-.18c0-.72-.2-2.02-1.98-2.02-.81,0-1.66.25-2.27.65l-.36-1.04c.72-.47,1.76-.77,2.86-.77,2.67,0,3.31,1.82,3.31,3.56v3.26c0,.76.04,1.5.14,2.09h-1.44ZM19.44,13.12c-1.73-.04-3.69.27-3.69,1.96,0,1.03.68,1.51,1.49,1.51,1.13,0,1.85-.72,2.11-1.46.05-.16.09-.34.09-.5v-1.51Z"/>
    <path class="cls-1" d="M23.58,5.44h6.54v1.31h-4.97v4.03h4.59v1.3h-4.59v5.49h-1.57V5.44Z"/>
    <path class="cls-1" d="M33.59,6.41c.02.54-.38.97-1.01.97-.56,0-.95-.43-.95-.97s.41-.99.99-.99.97.43.97.99ZM31.82,17.57v-8.71h1.58v8.71h-1.58Z"/>
    <path class="cls-1" d="M40.86,17.57l-.13-1.1h-.05c-.49.68-1.42,1.3-2.67,1.3-1.76,0-2.66-1.24-2.66-2.5,0-2.11,1.87-3.26,5.24-3.24v-.18c0-.72-.2-2.02-1.98-2.02-.81,0-1.66.25-2.27.65l-.36-1.04c.72-.47,1.76-.77,2.86-.77,2.67,0,3.31,1.82,3.31,3.56v3.26c0,.76.04,1.5.14,2.09h-1.44ZM40.63,13.12c-1.73-.04-3.69.27-3.69,1.96,0,1.03.68,1.51,1.49,1.51,1.13,0,1.85-.72,2.11-1.46.05-.16.09-.34.09-.5v-1.51Z"/>
    <path class="cls-1" d="M57.06,17.18c-.58.29-1.73.58-3.21.58-3.42,0-6-2.16-6-6.14s2.57-6.37,6.34-6.37c1.51,0,2.47.32,2.88.54l-.38,1.28c-.59-.29-1.44-.5-2.45-.5-2.84,0-4.74,1.82-4.74,5.01,0,2.97,1.71,4.88,4.66,4.88.95,0,1.93-.2,2.56-.5l.32,1.24Z"/>
    <path class="cls-1" d="M60.68,6.41c.02.54-.38.97-1.01.97-.56,0-.95-.43-.95-.97s.41-.99.99-.99.97.43.97.99ZM58.91,17.57v-8.71h1.58v8.71h-1.58Z"/>
    <path class="cls-1" d="M65.48,6.77h-3.69v-1.33h8.98v1.33h-3.71v10.8h-1.58V6.77Z"/>
    <path class="cls-1" d="M71.93,8.86l1.91,5.15c.2.58.41,1.26.56,1.78h.04c.16-.52.34-1.19.56-1.82l1.73-5.11h1.67l-2.38,6.21c-1.13,2.99-1.91,4.52-2.99,5.46-.77.68-1.55.95-1.95,1.03l-.4-1.33c.4-.13.92-.38,1.39-.77.43-.34.97-.95,1.33-1.76.07-.16.13-.29.13-.38s-.04-.22-.11-.41l-3.22-8.03h1.73Z"/>
  </g>
  <path class="cls-1" d="M65.23.59s1.38.41,2.24-.1c0,0,.75-.61,1.81-.41,0,0,.85.2,1.06,1.73s0,.12,0,.12c0,0,.3,1.97.09,2.61,0,0-5.87.18-8.36,0,0,0-.15-3.44.81-4.26,0,0,.96-.82,2.34.31Z"/>
</svg>